<?xml version="1.0" encoding="UTF-8"?><svg id="Ebene_2" xmlns="http://www.w3.org/2000/svg" xmlns:xlink="http://www.w3.org/1999/xlink" viewBox="0 0 427.7 384.82"><defs><style>.cls-1{mask:url(#mask);}.cls-2{filter:url(#luminosity-noclip);}.cls-3{filter:url(#luminosity-noclip-11);}.cls-4{filter:url(#luminosity-noclip-3);}.cls-5{filter:url(#luminosity-noclip-9);}.cls-6{filter:url(#luminosity-noclip-7);}.cls-7{filter:url(#luminosity-noclip-5);}.cls-8{fill:url(#_ŃŚÁŻž_ŪŪŻť_ūŗšŤŚŪÚ_15);}.cls-8,.cls-9,.cls-10,.cls-11,.cls-12,.cls-13{mix-blend-mode:multiply;}.cls-9{fill:url(#_ŃŚÁŻž_ŪŪŻť_ūŗšŤŚŪÚ_77);}.cls-10{fill:url(#_ŃŚÁŻž_ŪŪŻť_ūŗšŤŚŪÚ_70);}.cls-11{fill:url(#_ŃŚÁŻž_ŪŪŻť_ūŗšŤŚŪÚ_84);}.cls-12{fill:url(#_ŃŚÁŻž_ŪŪŻť_ūŗšŤŚŪÚ_43);}.cls-13{fill:url(#_ŃŚÁŻž_ŪŪŻť_ūŗšŤŚŪÚ_91);}.cls-14{mask:url(#mask-2);}.cls-15{mask:url(#mask-3);}.cls-16{mask:url(#mask-4);}.cls-17{mask:url(#mask-5);}.cls-18{mask:url(#mask-7);}.cls-19{mask:url(#mask-6);}.cls-20{mask:url(#mask-1);}.cls-21{mask:url(#mask-9);}.cls-22{mask:url(#mask-8);}.cls-23{fill:none;stroke:#fff;stroke-miterlimit:10;stroke-width:.42px;}.cls-24{fill:url(#Unbenannter_Verlauf_351);}.cls-25{fill:url(#_ŃŚÁŻž_ŪŪŻť_ūŗšŤŚŪÚ_397);}.cls-26{fill:url(#_ŃŚÁŻž_ŪŪŻť_ūŗšŤŚŪÚ_271);}.cls-27{fill:url(#_ŃŚÁŻž_ŪŪŻť_ūŗšŤŚŪÚ_272);}.cls-28{fill:url(#_ŃŚÁŻž_ŪŪŻť_ūŗšŤŚŪÚ_293);}.cls-29{fill:url(#_ŃŚÁŻž_ŪŪŻť_ūŗšŤŚŪÚ_266);}.cls-30{fill:url(#_ŃŚÁŻž_ŪŪŻť_ūŗšŤŚŪÚ_269);}.cls-31{fill:url(#_ŃŚÁŻž_ŪŪŻť_ūŗšŤŚŪÚ_265);}.cls-32{fill:url(#_ŃŚÁŻž_ŪŪŻť_ūŗšŤŚŪÚ_268);}.cls-33{mask:url(#mask-10);}.cls-34{mask:url(#mask-11);}</style><radialGradient id="Unbenannter_Verlauf_351" cx="213.85" cy="192.41" fx="213.85" fy="192.41" r="203.41" gradientUnits="userSpaceOnUse"><stop offset="0" stop-color="#476d8f"/><stop offset=".2" stop-color="#416586"/><stop offset=".52" stop-color="#305270"/><stop offset=".91" stop-color="#16324c"/><stop offset="1" stop-color="#102a43"/></radialGradient><filter id="luminosity-noclip" x="114.25" y="58.88" width="199.2" height="214.22" color-interpolation-filters="sRGB" filterUnits="userSpaceOnUse"><feFlood flood-color="#fff" result="bg"/><feBlend in="SourceGraphic" in2="bg"/></filter><filter id="luminosity-noclip-2" x="114.25" y="-7623.66" width="199.2" height="32766" color-interpolation-filters="sRGB" filterUnits="userSpaceOnUse"><feFlood flood-color="#fff" result="bg"/><feBlend in="SourceGraphic" in2="bg"/></filter><mask id="mask-1" x="114.25" y="-7623.66" width="199.2" height="32766" maskUnits="userSpaceOnUse"/><radialGradient id="_ŃŚÁŻž_ŪŪŻť_ūŗšŤŚŪÚ_91" cx="197.05" cy="132.38" fx="197.05" fy="132.38" r="133.2" gradientUnits="userSpaceOnUse"><stop offset=".53" stop-color="#010101"/><stop offset=".59" stop-color="#050505"/><stop offset=".65" stop-color="#111"/><stop offset=".71" stop-color="#252525"/><stop offset=".77" stop-color="#414141"/><stop offset=".83" stop-color="#666"/><stop offset=".89" stop-color="#939393"/><stop offset=".94" stop-color="#c7c7c7"/><stop offset="1" stop-color="#fff"/></radialGradient><mask id="mask" x="114.25" y="58.88" width="199.2" height="214.22" maskUnits="userSpaceOnUse"><g class="cls-2"><g class="cls-20"><path class="cls-13" d="M173.94,60.57c15.85-3.11,32.23-1.45,48.2,1,24.04,3.68,48.78,9.56,67.62,24.95,18.84,15.38,29.92,42.65,19.96,64.85-3.94,8.79-10.68,15.96-16.37,23.73-19.34,26.38-27.77,61.09-53.03,81.87-23.61,19.41-59.88,21.57-85.63,5.08-26.46-16.94-39.36-49.69-40.36-81.1-.9-28.45,6.05-57.53,14.82-84.43,6.41-19.64,24.89-32.04,44.79-35.94Z"/></g></g></mask><radialGradient id="_ŃŚÁŻž_ŪŪŻť_ūŗšŤŚŪÚ_272" cx="197.14" cy="132.56" fx="197.14" fy="132.56" r="132.48" gradientUnits="userSpaceOnUse"><stop offset=".53" stop-color="#fff"/><stop offset=".64" stop-color="#fffdfa"/><stop offset=".75" stop-color="#fff8ee"/><stop offset=".86" stop-color="#fff0da"/><stop offset=".97" stop-color="#ffe5be"/><stop offset="1" stop-color="#ffe2b7"/></radialGradient><filter id="luminosity-noclip-3" x="105.03" y="61.19" width="217.65" height="209.58" color-interpolation-filters="sRGB" filterUnits="userSpaceOnUse"><feFlood flood-color="#fff" result="bg"/><feBlend in="SourceGraphic" in2="bg"/></filter><filter id="luminosity-noclip-4" x="105.03" y="-7623.66" width="217.65" height="32766" color-interpolation-filters="sRGB" filterUnits="userSpaceOnUse"><feFlood flood-color="#fff" result="bg"/><feBlend in="SourceGraphic" in2="bg"/></filter><mask id="mask-3" x="105.03" y="-7623.66" width="217.65" height="32766" maskUnits="userSpaceOnUse"/><radialGradient id="_ŃŚÁŻž_ŪŪŻť_ūŗšŤŚŪÚ_84" cx="-744.85" cy="127.59" fx="-744.85" fy="127.59" r="159.79" gradientTransform="translate(865.51) scale(.83 1)" gradientUnits="userSpaceOnUse"><stop offset=".51" stop-color="#010101"/><stop offset=".58" stop-color="#040404"/><stop offset=".64" stop-color="#0f0f0f"/><stop offset=".7" stop-color="#222"/><stop offset=".76" stop-color="#3d3d3d"/><stop offset=".82" stop-color="#5f5f5f"/><stop offset=".88" stop-color="#898989"/><stop offset=".93" stop-color="#bbb"/><stop offset=".99" stop-color="#f3f3f3"/><stop offset="1" stop-color="#fff"/></radialGradient><mask id="mask-2" x="105.03" y="61.19" width="217.65" height="209.58" maskUnits="userSpaceOnUse"><g class="cls-4"><g class="cls-15"><path class="cls-11" d="M114.45,113.83c11.29-20.31,30.5-32.09,49.68-40.05,30.77-12.77,64.87-17.78,95.83-5.68,30.96,12.1,57.81,43.81,62.11,82.67,3.79,34.22-10.51,69.27-32.98,90.7-22.47,21.43-52.02,30.23-80.68,29.24-12.49-.43-25.15-2.69-36.42-9.18-11.96-6.89-21.73-18.16-31.27-29.24-25.74-29.86-49.42-76.8-26.27-118.45Z"/></g></g></mask><radialGradient id="_ŃŚÁŻž_ŪŪŻť_ūŗšŤŚŪÚ_271" cx="-745.06" cy="127.79" fx="-745.06" fy="127.79" r="158.98" gradientTransform="translate(865.51) scale(.83 1)" gradientUnits="userSpaceOnUse"><stop offset=".51" stop-color="#fff"/><stop offset=".61" stop-color="#fbfdfe"/><stop offset=".71" stop-color="#f0f9fd"/><stop offset=".8" stop-color="#ddf1fc"/><stop offset=".89" stop-color="#c2e7fa"/><stop offset=".98" stop-color="#a1daf7"/><stop offset="1" stop-color="#96d6f7"/></radialGradient><filter id="luminosity-noclip-5" x="114.71" y="63" width="198.28" height="205.97" color-interpolation-filters="sRGB" filterUnits="userSpaceOnUse"><feFlood flood-color="#fff" result="bg"/><feBlend in="SourceGraphic" in2="bg"/></filter><filter id="luminosity-noclip-6" x="114.71" y="-7623.66" width="198.28" height="32766" color-interpolation-filters="sRGB" filterUnits="userSpaceOnUse"><feFlood flood-color="#fff" result="bg"/><feBlend in="SourceGraphic" in2="bg"/></filter><mask id="mask-5" x="114.71" y="-7623.66" width="198.28" height="32766" maskUnits="userSpaceOnUse"/><radialGradient id="_ŃŚÁŻž_ŪŪŻť_ūŗšŤŚŪÚ_77" cx="-5972.06" cy="-4852.73" fx="-5972.06" fy="-4852.73" r="157.23" gradientTransform="translate(6014.83 879.71) rotate(-44.41) scale(.73 .93) skewX(-11.11)" gradientUnits="userSpaceOnUse"><stop offset=".51" stop-color="#010101"/><stop offset=".6" stop-color="#030303"/><stop offset=".67" stop-color="#0d0d0d"/><stop offset=".72" stop-color="#1d1d1d"/><stop offset=".78" stop-color="#333"/><stop offset=".83" stop-color="#505050"/><stop offset=".87" stop-color="#747474"/><stop offset=".92" stop-color="#9e9e9e"/><stop offset=".96" stop-color="#cecece"/><stop offset="1" stop-color="#fff"/></radialGradient><mask id="mask-4" x="114.71" y="63" width="198.28" height="205.97" maskUnits="userSpaceOnUse"><g class="cls-7"><g class="cls-17"><path class="cls-9" d="M136.61,212.43c-12.69-15.04-22.3-35.43-21.89-54.33.41-19.03,10.51-33.06,20.69-45.18,16.52-19.66,34.92-37.95,58.18-45.99,23.26-8.04,52.32-4.32,75.53,16.33,19.22,17.1,32.14,43.59,39.19,69.81,3.93,14.62,6.28,30.01,3.36,43.14-2.67,11.99-9.46,21.03-16.34,29.42-14.3,17.44-30.2,33.92-50.73,40.55-15.94,5.15-35.36,3.49-52.54-7.78-8.75-5.74-16.57-13.51-25.32-19.54-10.68-7.36-21.13-15.77-30.14-26.45Z"/></g></g></mask><radialGradient id="_ŃŚÁŻž_ŪŪŻť_ūŗšŤŚŪÚ_269" cx="-5971.96" cy="-4852.98" fx="-5971.96" fy="-4852.98" r="156.43" gradientTransform="translate(6014.83 879.71) rotate(-44.41) scale(.73 .93) skewX(-11.11)" gradientUnits="userSpaceOnUse"><stop offset=".51" stop-color="#fff"/><stop offset=".65" stop-color="#fdfcfd"/><stop offset=".75" stop-color="#f9f2f8"/><stop offset=".83" stop-color="#f3e2ef"/><stop offset=".91" stop-color="#e9cce2"/><stop offset=".99" stop-color="#ddafd2"/><stop offset="1" stop-color="#dbaacf"/></radialGradient><linearGradient id="_ŃŚÁŻž_ŪŪŻť_ūŗšŤŚŪÚ_293" x1="118.38" y1="163.93" x2="312.13" y2="163.93" gradientUnits="userSpaceOnUse"><stop offset="0" stop-color="#bc77b0"/><stop offset=".21" stop-color="#b77bb3"/><stop offset=".45" stop-color="#aa89bf"/><stop offset=".71" stop-color="#95a0d1"/><stop offset=".98" stop-color="#77c0eb"/><stop offset="1" stop-color="#75c4ee"/></linearGradient><filter id="luminosity-noclip-7" x="107.79" y="67.44" width="212.11" height="197.09" color-interpolation-filters="sRGB" filterUnits="userSpaceOnUse"><feFlood flood-color="#fff" result="bg"/><feBlend in="SourceGraphic" in2="bg"/></filter><filter id="luminosity-noclip-8" x="107.79" y="-7623.66" width="212.11" height="32766" color-interpolation-filters="sRGB" filterUnits="userSpaceOnUse"><feFlood flood-color="#fff" result="bg"/><feBlend in="SourceGraphic" in2="bg"/></filter><mask id="mask-7" x="107.79" y="-7623.66" width="212.11" height="32766" maskUnits="userSpaceOnUse"/><radialGradient id="_ŃŚÁŻž_ŪŪŻť_ūŗšŤŚŪÚ_70" cx="192.28" cy="98.33" fx="192.28" fy="98.33" r="181.16" gradientUnits="userSpaceOnUse"><stop offset=".51" stop-color="#010101"/><stop offset=".58" stop-color="#040404"/><stop offset=".65" stop-color="#0e0e0e"/><stop offset=".71" stop-color="#202020"/><stop offset=".76" stop-color="#383838"/><stop offset=".82" stop-color="#585858"/><stop offset=".87" stop-color="#7f7f7f"/><stop offset=".92" stop-color="#adadad"/><stop offset=".97" stop-color="#e1e1e1"/><stop offset="1" stop-color="#fff"/></radialGradient><mask id="mask-6" x="107.79" y="67.44" width="212.11" height="197.09" maskUnits="userSpaceOnUse"><g class="cls-6"><g class="cls-18"><path class="cls-10" d="M122.96,114.6c16.15-26.43,45.4-44.4,76.28-46.86,42.47-3.38,84.3,22.6,105.39,59.62,9.75,17.13,15.63,36.69,15.26,56.39-.38,19.71-7.27,39.5-20.47,54.13-23.13,25.63-62.43,31.83-95.71,22.62-29.85-8.27-66.12-29.76-85.33-54.63-18.54-24-9.95-67.49,4.59-91.28Z"/></g></g></mask><radialGradient id="_ŃŚÁŻž_ŪŪŻť_ūŗšŤŚŪÚ_268" cx="192.39" cy="98.7" fx="192.39" fy="98.7" r="180.18" gradientUnits="userSpaceOnUse"><stop offset=".51" stop-color="#fff"/><stop offset=".63" stop-color="#fdfbfd"/><stop offset=".73" stop-color="#faf1f6"/><stop offset=".83" stop-color="#f5dfec"/><stop offset=".92" stop-color="#eec7de"/><stop offset="1" stop-color="#e5aacd"/></radialGradient><linearGradient id="_ŃŚÁŻž_ŪŪŻť_ūŗšŤŚŪÚ_397" x1="125.07" y1="170.59" x2="297.98" y2="170.59" gradientUnits="userSpaceOnUse"><stop offset="0" stop-color="#bc77b0"/><stop offset=".19" stop-color="#bf7bae"/><stop offset=".42" stop-color="#c989aa"/><stop offset=".65" stop-color="#daa0a4"/><stop offset=".9" stop-color="#f1c09c"/><stop offset="1" stop-color="#fcd098"/></linearGradient><filter id="luminosity-noclip-9" x="119.32" y="64.9" width="189.06" height="202.17" color-interpolation-filters="sRGB" filterUnits="userSpaceOnUse"><feFlood flood-color="#fff" result="bg"/><feBlend in="SourceGraphic" in2="bg"/></filter><filter id="luminosity-noclip-10" x="119.32" y="-7623.66" width="189.06" height="32766" color-interpolation-filters="sRGB" filterUnits="userSpaceOnUse"><feFlood flood-color="#fff" result="bg"/><feBlend in="SourceGraphic" in2="bg"/></filter><mask id="mask-9" x="119.32" y="-7623.66" width="189.06" height="32766" maskUnits="userSpaceOnUse"/><radialGradient id="_ŃŚÁŻž_ŪŪŻť_ūŗšŤŚŪÚ_43" cx="249.87" cy="185.2" fx="249.87" fy="185.2" r="136.24" gradientUnits="userSpaceOnUse"><stop offset=".63" stop-color="#010101"/><stop offset=".68" stop-color="#050505"/><stop offset=".72" stop-color="#111"/><stop offset=".77" stop-color="#252525"/><stop offset=".82" stop-color="#414141"/><stop offset=".86" stop-color="#666"/><stop offset=".91" stop-color="#939393"/><stop offset=".96" stop-color="#c7c7c7"/><stop offset="1" stop-color="#fff"/></radialGradient><mask id="mask-8" x="119.32" y="64.9" width="189.06" height="202.17" maskUnits="userSpaceOnUse"><g class="cls-5"><g class="cls-21"><path class="cls-12" d="M155.67,85.12c24.07-19.83,58.79-25.48,88.21-15.12,29.41,10.36,52.72,36.08,60.99,66.15,8.27,30.07,1.6,63.68-16.81,88.86-16.22,22.18-41.47,37.83-68.73,41.33-27.26,3.5-56.1-5.54-75.7-24.8-20.86-20.51-28.91-49.36-21.75-77.29,3.61-14.07,2.67-28.43,7.83-42.29,5.3-14.23,14.22-27.16,25.96-36.84Z"/></g></g></mask><radialGradient id="_ŃŚÁŻž_ŪŪŻť_ūŗšŤŚŪÚ_266" cx="249.66" cy="185.09" fx="249.66" fy="185.09" r="135.44" gradientUnits="userSpaceOnUse"><stop offset=".63" stop-color="#fff"/><stop offset=".72" stop-color="#fafdfd"/><stop offset=".81" stop-color="#eef7fa"/><stop offset=".9" stop-color="#daeff3"/><stop offset="1" stop-color="#bee2eb"/><stop offset="1" stop-color="#bde2eb"/></radialGradient><filter id="luminosity-noclip-11" x="121.86" y="67.86" width="183.98" height="196.25" color-interpolation-filters="sRGB" filterUnits="userSpaceOnUse"><feFlood flood-color="#fff" result="bg"/><feBlend in="SourceGraphic" in2="bg"/></filter><filter id="luminosity-noclip-12" x="121.86" y="-7623.66" width="183.98" height="32766" color-interpolation-filters="sRGB" filterUnits="userSpaceOnUse"><feFlood flood-color="#fff" result="bg"/><feBlend in="SourceGraphic" in2="bg"/></filter><mask id="mask-11" x="121.86" y="-7623.66" width="183.98" height="32766" maskUnits="userSpaceOnUse"/><radialGradient id="_ŃŚÁŻž_ŪŪŻť_ūŗšŤŚŪÚ_15" cx="220.23" cy="137.26" fx="220.23" fy="137.26" r="156.13" gradientUnits="userSpaceOnUse"><stop offset=".61" stop-color="#010101"/><stop offset=".65" stop-color="#050505"/><stop offset=".7" stop-color="#131313"/><stop offset=".75" stop-color="#2a2a2a"/><stop offset=".81" stop-color="#4b4b4b"/><stop offset=".86" stop-color="#747474"/><stop offset=".92" stop-color="#a7a7a7"/><stop offset=".98" stop-color="#e3e3e3"/><stop offset="1" stop-color="#fff"/></radialGradient><mask id="mask-10" x="121.86" y="67.86" width="183.98" height="196.25" maskUnits="userSpaceOnUse"><g class="cls-3"><g class="cls-34"><path class="cls-8" d="M179.7,72.6c14.1-5.57,29.91-5.85,44.77-2.8,33.16,6.81,62.42,30.94,74.78,62.46,12.36,31.52,7.14,69.46-13.82,96.05-20.96,26.59-57.04,40.56-90.32,34.34-33.28-6.22-62.1-32.65-70.51-65.45-6.47-25.21-.98-52.22,11.48-74.7,10.68-19.27,22.07-41.4,43.63-49.9Z"/></g></g></mask><radialGradient id="_ŃŚÁŻž_ŪŪŻť_ūŗšŤŚŪÚ_265" cx="220.22" cy="137.34" fx="220.22" fy="137.34" r="155.72" gradientUnits="userSpaceOnUse"><stop offset=".61" stop-color="#fff"/><stop offset=".67" stop-color="#fafcfe"/><stop offset=".74" stop-color="#ecf6fc"/><stop offset=".81" stop-color="#d5edf9"/><stop offset=".89" stop-color="#b4dff5"/><stop offset=".96" stop-color="#8bcdf0"/><stop offset="1" stop-color="#75c4ee"/></radialGradient></defs><g id="Ebene_1-2"><rect class="cls-24" width="427.7" height="384.82"/><g class="cls-1"><path class="cls-27" d="M174.16,61.14c15.77-3.09,32.06-1.44,47.94.99,23.91,3.66,48.52,9.51,67.25,24.81,18.74,15.3,29.75,42.42,19.85,64.49-3.92,8.74-10.62,15.87-16.28,23.6-19.24,26.23-27.62,60.76-52.74,81.43-23.48,19.31-59.56,21.45-85.16,5.06-26.32-16.85-39.15-49.43-40.14-80.66-.9-28.3,6.01-57.22,14.74-83.97,6.37-19.54,24.75-31.86,44.55-35.74Z"/></g><g class="cls-14"><path class="cls-26" d="M114.95,114.1c11.23-20.21,30.34-31.93,49.43-39.85,30.62-12.7,64.54-17.69,95.34-5.65,30.8,12.04,57.52,43.59,61.8,82.25,3.77,34.05-10.45,68.92-32.81,90.24-22.36,21.32-51.76,30.08-80.27,29.09-12.43-.43-25.02-2.67-36.24-9.14-11.9-6.86-21.62-18.07-31.12-29.09-25.61-29.71-49.17-76.41-26.14-117.86Z"/></g><g class="cls-16"><path class="cls-30" d="M137.01,212.19c-12.62-14.96-22.18-35.25-21.78-54.05.41-18.93,10.45-32.89,20.59-44.95,16.44-19.56,34.74-37.76,57.89-45.75,23.14-8,52.05-4.3,75.14,16.25,19.12,17.02,31.98,43.37,38.99,69.45,3.91,14.55,6.25,29.86,3.34,42.92-2.65,11.93-9.41,20.92-16.26,29.27-14.22,17.35-30.04,33.74-50.47,40.34-15.86,5.12-35.18,3.47-52.27-7.74-8.7-5.71-16.48-13.44-25.19-19.44-10.62-7.32-21.03-15.69-29.99-26.31Z"/></g><path class="cls-28" d="M195.93,250.41c-9.31,0-18.32-1.1-26.61-3.27-14.84-3.89-26.79-10.97-35.52-21.05-15.06-17.37-19.55-44.29-11.43-68.58,7.05-21.09,23.16-40.62,45.38-54.98,30.91-19.99,57.5-28.1,79.01-24.09,14.54,2.71,27.06,7.78,37.19,15.07,11.29,8.13,19.35,18.87,23.96,31.92,9.55,27.07,2.57,60.03-17.79,83.97-9.36,11.01-21.21,20.12-35.23,27.07-13.18,6.54-27.63,10.87-42.93,12.88-5.39.71-10.76,1.06-16.02,1.06ZM167.87,102.71l.11.18c-22.14,14.31-38.19,33.76-45.21,54.76-8.07,24.15-3.61,50.9,11.35,68.17,13.51,15.58,35.91,24.19,61.74,24.19,5.22,0,10.58-.35,16.04-1.07,31.51-4.13,59.91-18.64,77.9-39.8,20.26-23.83,27.21-56.63,17.71-83.56-11.05-31.32-39.18-42.7-60.83-46.72-21.4-3.98-47.88,4.1-78.7,24.03l-.11-.18Z"/><g class="cls-19"><path class="cls-32" d="M123.46,114.87c16.06-26.29,45.16-44.16,75.87-46.61,42.24-3.36,83.85,22.48,104.82,59.3,9.7,17.03,15.55,36.49,15.17,56.09-.37,19.6-7.23,39.28-20.36,53.84-23,25.5-62.1,31.66-95.19,22.49-29.69-8.22-65.76-29.6-84.87-54.33-18.44-23.87-9.89-67.12,4.56-90.78Z"/></g><path class="cls-25" d="M214.52,263c-4.22,0-8.3-.51-12.18-1.54-18.47-4.92-31.51-20.65-44.34-37.72-17.86-23.76-33.82-47.29-32.88-73.89.44-12.48,4.91-24.92,12.94-35.98,7.68-10.58,18.01-19.18,29.88-24.87,21.79-10.44,64.69-16.98,88.57-2.12,12.78,7.95,23.59,20.89,31.26,37.4,7.17,15.43,10.78,32.39,10.15,47.75-1.36,33.43-21.16,65.48-50.44,81.66-11.11,6.14-22.45,9.3-32.95,9.3ZM168.02,89.19l.09.19c-24.61,11.79-41.72,36.09-42.58,60.48-.93,26.46,14.98,49.92,32.8,73.62,12.79,17.01,25.78,32.68,44.12,37.56,13.42,3.58,29.34.83,44.82-7.72,29.15-16.11,48.87-48.03,50.22-81.31,1.14-27.95-12.92-67.16-41.21-84.77-23.75-14.78-66.46-8.25-88.16,2.14l-.09-.19Z"/><g class="cls-22"><path class="cls-29" d="M156.01,85.59c23.93-19.71,58.45-25.33,87.69-15.04,29.24,10.3,52.42,35.87,60.64,65.76,8.22,29.89,1.59,63.31-16.71,88.34-16.13,22.05-41.23,37.61-68.33,41.09-27.1,3.48-55.78-5.51-75.26-24.66-20.74-20.39-28.75-49.07-21.62-76.84,3.59-13.99,2.65-28.26,7.78-42.04,5.27-14.15,14.14-27.01,25.81-36.62Z"/></g><g class="cls-33"><path class="cls-31" d="M179.79,72.84c14.07-5.55,29.84-5.84,44.65-2.79,33.08,6.8,62.25,30.86,74.58,62.3,12.33,31.44,7.12,69.28-13.78,95.8-20.9,26.52-56.89,40.45-90.09,34.25-33.19-6.2-61.93-32.57-70.33-65.27-6.45-25.14-.98-52.08,11.45-74.51,10.65-19.22,22.02-41.29,43.51-49.77Z"/></g><path class="cls-23" d="M221.51,82.3c-16.86-4.27-34.73-2.22-51.61,1.97-10.56,2.62-21.26,6.25-29.34,13.53-8.17,7.36-12.98,17.97-14.59,28.85-1.61,10.88-.22,22.02,2.57,32.66,6.33,24.16,19.98,46.34,38.69,62.88,18.71,16.54,42.41,27.36,67.16,30.68,12.66,1.7,25.94,1.39,37.69-3.65,20.29-8.7,32.77-30.74,34.39-52.76,3.08-41.78-23.63-77.18-56.09-100.28-8.75-6.23-18.42-11.23-28.87-13.88Z"/></g></svg>