<?xml version="1.0" encoding="UTF-8"?><svg id="Ebene_2" xmlns="http://www.w3.org/2000/svg" xmlns:xlink="http://www.w3.org/1999/xlink" viewBox="0 0 194.08 47.74"><defs><style>.cls-1{fill:url(#_ŃŚÁŻž_ŪŪŻť_ūŗšŤŚŪÚ_131);}</style><radialGradient id="_ŃŚÁŻž_ŪŪŻť_ūŗšŤŚŪÚ_131" cx="99.88" cy="13.29" fx="99.88" fy="13.29" r="1.69" gradientUnits="userSpaceOnUse"><stop offset="0" stop-color="#1f67b0"/><stop offset=".51" stop-color="#1c2b4d"/><stop offset=".54" stop-color="#1a2848"/><stop offset=".84" stop-color="#0f1528"/><stop offset="1" stop-color="#0b0e1d"/></radialGradient></defs><g id="Ebene_1-2"><path d="M7.93,21c-1.56,0-2.93-.28-4.12-.84-1.19-.56-2.12-1.36-2.8-2.39-.67-1.04-1.01-2.29-1.01-3.75v-.81h3.75v.81c0,1.21.38,2.12,1.12,2.73.75.61,1.77.91,3.06.91s2.28-.26,2.93-.78c.64-.52.97-1.18.97-1.99,0-.56-.16-1.01-.48-1.36s-.78-.63-1.38-.85c-.61-.22-1.34-.43-2.21-.62l-.66-.14c-1.38-.31-2.57-.7-3.56-1.17-.99-.47-1.75-1.09-2.28-1.86-.53-.77-.79-1.77-.79-3s.29-2.28.88-3.16c.59-.87,1.41-1.55,2.48-2.02,1.07-.47,2.32-.71,3.76-.71s2.73.25,3.85.74c1.12.49,2.01,1.22,2.65,2.19.64.97.97,2.19.97,3.65v.87h-3.75v-.87c0-.77-.15-1.39-.45-1.86-.3-.47-.73-.82-1.28-1.04s-1.22-.33-1.99-.33c-1.15,0-2,.22-2.55.65s-.82,1.02-.82,1.77c0,.5.13.92.39,1.27s.65.63,1.17.87,1.18.43,1.99.61l.66.14c1.44.31,2.7.7,3.76,1.18,1.07.48,1.9,1.12,2.5,1.9.6.79.89,1.8.89,3.03s-.31,2.31-.94,3.24c-.62.93-1.51,1.66-2.65,2.19-1.14.53-2.5.79-4.05.79Z"/><path d="M21.37,26.36v-3.17h7.79c.54,0,.81-.29.81-.87v-3.6h-.52c-.15.33-.39.65-.72.98-.33.33-.77.6-1.33.81s-1.27.32-2.13.32c-1.12,0-2.09-.25-2.93-.76-.84-.51-1.49-1.22-1.95-2.12-.46-.9-.69-1.94-.69-3.12V6.29h3.63v8.25c0,1.08.26,1.88.79,2.42.53.54,1.28.81,2.26.81,1.12,0,1.98-.37,2.6-1.11.62-.74.92-1.77.92-3.1v-7.27h3.63v16.84c0,.98-.29,1.76-.87,2.35-.58.59-1.35.88-2.31.88h-9Z"/><path d="M38.79,20.59V6.29h3.58v1.56h.52c.25-.48.66-.9,1.24-1.25.58-.36,1.34-.53,2.28-.53,1.02,0,1.84.2,2.45.59.62.39,1.09.91,1.41,1.54h.52c.33-.62.79-1.12,1.38-1.53s1.44-.61,2.54-.61c.88,0,1.69.19,2.41.56.72.38,1.3.94,1.73,1.7.43.76.65,1.72.65,2.87v9.4h-3.63v-9.14c0-.79-.2-1.38-.61-1.77-.4-.39-.97-.59-1.7-.59-.83,0-1.47.26-1.92.79-.45.53-.68,1.28-.68,2.26v8.45h-3.63v-9.14c0-.79-.2-1.38-.61-1.77-.4-.39-.97-.59-1.7-.59-.83,0-1.47.26-1.92.79-.45.53-.68,1.28-.68,2.26v8.45h-3.63Z"/><path d="M73.27,21c-1.29,0-2.28-.22-2.97-.66-.69-.44-1.2-.93-1.53-1.47h-.52v1.73h-3.58V.4h3.63v7.53h.52c.21-.35.5-.67.85-.98.36-.31.83-.56,1.41-.76.59-.2,1.31-.3,2.18-.3,1.15,0,2.22.28,3.2.85.98.57,1.77,1.4,2.37,2.49.6,1.1.89,2.42.89,3.98v.46c0,1.56-.3,2.88-.89,3.98-.6,1.1-1.38,1.93-2.37,2.49-.98.57-2.05.85-3.2.85ZM72.17,17.82c1.12,0,2.05-.36,2.8-1.08.75-.72,1.12-1.77,1.12-3.16v-.29c0-1.38-.37-2.44-1.11-3.16-.74-.72-1.68-1.08-2.81-1.08s-2.05.36-2.8,1.08c-.75.72-1.12,1.77-1.12,3.16v.29c0,1.38.38,2.44,1.12,3.16.75.72,1.68,1.08,2.8,1.08Z"/><path d="M86.07,4.61c-.65,0-1.21-.21-1.66-.63-.45-.42-.68-.98-.68-1.67s.23-1.25.68-1.67c.45-.42,1-.63,1.66-.63s1.23.21,1.67.63.66.98.66,1.67-.22,1.25-.66,1.67-1,.63-1.67.63ZM84.25,20.59V6.29h3.63v14.31h-3.63Z"/><path d="M99.92,21c-1.42,0-2.7-.29-3.84-.87s-2.03-1.41-2.68-2.51c-.65-1.1-.98-2.41-.98-3.95v-.46c0-1.54.33-2.86.98-3.95.65-1.1,1.55-1.93,2.68-2.51,1.13-.58,2.41-.87,3.84-.87s2.7.29,3.84.87c1.13.58,2.03,1.41,2.68,2.51.65,1.1.98,2.41.98,3.95v.46c0,1.54-.33,2.85-.98,3.95s-1.55,1.93-2.68,2.51-2.41.87-3.84.87ZM99.92,17.77c1.12,0,2.04-.36,2.77-1.08.73-.72,1.1-1.75,1.1-3.1v-.29c0-1.35-.36-2.38-1.08-3.1-.72-.72-1.65-1.08-2.78-1.08s-2.04.36-2.77,1.08-1.1,1.75-1.1,3.1v.29c0,1.35.37,2.38,1.1,3.1.73.72,1.65,1.08,2.77,1.08Z"/><path d="M112.01,20.59V6.29h3.58v1.88h.52c.23-.5.66-.98,1.3-1.43.63-.45,1.6-.68,2.88-.68,1.11,0,2.09.25,2.93.76.84.51,1.49,1.21,1.95,2.11.46.89.69,1.94.69,3.13v8.54h-3.63v-8.25c0-1.08-.26-1.88-.79-2.42-.53-.54-1.28-.81-2.26-.81-1.12,0-1.98.37-2.6,1.11-.62.74-.92,1.77-.92,3.1v7.27h-3.63Z"/><path d="M136.92,20.68v-2.16h2.83V2.65h-2.83V.49h7.87c2.65,0,4.71.67,6.16,2.02,1.45,1.35,2.18,3.41,2.18,6.2v3.75c0,2.81-.73,4.88-2.18,6.22-1.45,1.34-3.5,2-6.16,2h-7.87ZM142.17,18.48h2.62c1.96,0,3.44-.48,4.44-1.44,1-.96,1.5-2.45,1.5-4.47v-3.95c0-2.06-.5-3.56-1.5-4.5-1-.94-2.48-1.41-4.44-1.41h-2.62v15.78Z"/><path d="M159.66,20.68V.49h12.43v2.19h-10.01v6.75h9.2v2.19h-9.2v6.86h10.15v2.19h-12.58Z"/><path d="M183.75,20.68L177.67.49h2.51l5.51,18.72h.38L191.57.49h2.51l-6.08,20.19h-4.24Z"/><circle class="cls-1" cx="99.88" cy="13.29" r="1.69"/><path d="M28.94,37.43c1.47,0,2.42.82,2.51,2.16h-1.06c-.05-.77-.6-1.22-1.46-1.22-.97,0-1.6.49-1.6,1.25,0,.62.35.99,1.08,1.16l1.27.3c1.26.29,1.9.97,1.9,2.06,0,1.39-1.08,2.27-2.72,2.27s-2.62-.82-2.68-2.15h1.07c.02.74.64,1.21,1.61,1.21,1.03,0,1.68-.48,1.68-1.25,0-.61-.33-.99-1.07-1.16l-1.27-.29c-1.26-.29-1.91-1.01-1.91-2.13,0-1.32,1.07-2.22,2.66-2.22Z"/><path d="M33.49,45.29v-5.22h.9l.1.68c.27-.49.82-.83,1.56-.83.81,0,1.39.41,1.66,1.06.25-.65.88-1.06,1.69-1.06,1.2,0,1.92.75,1.92,1.95v3.42h-.98v-3.17c0-.82-.46-1.29-1.16-1.29-.76,0-1.26.53-1.26,1.37v3.1h-.99v-3.18c0-.82-.45-1.27-1.15-1.27-.76,0-1.26.52-1.26,1.36v3.1h-1Z"/><path d="M43.36,43.84c0-.96.72-1.56,1.94-1.66l1.64-.13v-.15c0-.88-.52-1.19-1.23-1.19-.84,0-1.32.37-1.32,1h-.88c0-1.09.9-1.81,2.24-1.81s2.17.68,2.17,2.09v3.28h-.85l-.11-.84c-.27.6-.98.97-1.83.97-1.12,0-1.78-.63-1.78-1.58ZM46.96,43.04v-.28l-1.33.11c-.89.09-1.25.43-1.25.94,0,.56.41.83,1.06.83.95,0,1.53-.62,1.53-1.6Z"/><path d="M53.23,40.95h-.45c-.95,0-1.54.58-1.54,1.58v2.77h-1v-5.21h.94l.06.79c.21-.54.74-.91,1.45-.91.18,0,.33.02.53.06v.92Z"/><path d="M55.41,45.29v-4.38h-1.03v-.84h1.03v-1.63h1v1.63h1.03v.84h-1.03v4.38h-1Z"/><path d="M58.79,42.69c0-1.63,1.04-2.77,2.55-2.77s2.46,1.03,2.46,2.57v.37h-4.04c.08,1.11.65,1.72,1.64,1.72.78,0,1.29-.32,1.46-.92h.94c-.26,1.12-1.13,1.75-2.42,1.75-1.54,0-2.6-1.11-2.6-2.73ZM59.79,42.21h3.01c0-.87-.57-1.44-1.45-1.44s-1.43.52-1.56,1.44Z"/><path d="M68.87,40.95h-.45c-.95,0-1.54.58-1.54,1.58v2.77h-1v-5.21h.94l.06.79c.21-.54.74-.91,1.45-.91.18,0,.33.02.53.06v.92Z"/><path d="M69.9,44.67c0-.42.35-.76.77-.76s.76.34.76.76-.35.75-.76.75-.77-.34-.77-.75Z"/><path d="M78.08,42.02v3.28h-1.05v-7.72h4.66v.96h-3.61v2.53h3.03v.95h-3.03Z"/><path d="M82.75,43.84c0-.96.72-1.56,1.94-1.66l1.64-.13v-.15c0-.88-.52-1.19-1.23-1.19-.84,0-1.32.37-1.32,1h-.88c0-1.09.9-1.81,2.24-1.81s2.17.68,2.17,2.09v3.28h-.86l-.11-.84c-.27.6-.98.97-1.83.97-1.12,0-1.78-.63-1.78-1.58ZM86.35,43.04v-.28l-1.33.11c-.89.09-1.25.43-1.25.94,0,.56.41.83,1.06.83.95,0,1.53-.62,1.53-1.6Z"/><path d="M90.21,43.78c0,.53.41.85,1.07.85.71,0,1.11-.29,1.11-.77,0-.35-.17-.57-.72-.71l-.92-.21c-.93-.22-1.37-.68-1.37-1.45,0-.96.81-1.57,1.97-1.57s1.89.64,1.91,1.63h-.96c-.02-.52-.37-.85-.98-.85s-.98.28-.98.76c0,.35.26.59.77.72l.92.22c.89.21,1.32.62,1.32,1.4,0,.99-.85,1.62-2.09,1.62s-2.01-.65-2.01-1.64h.96Z"/><path d="M95.8,45.29v-4.38h-1.03v-.84h1.03v-1.63h1v1.63h1.03v.84h-1.03v4.38h-1Z"/><path d="M99.18,42.69c0-1.63,1.04-2.77,2.55-2.77s2.46,1.03,2.46,2.57v.37h-4.04c.08,1.11.65,1.72,1.64,1.72.78,0,1.29-.32,1.46-.92h.94c-.26,1.12-1.13,1.75-2.42,1.75-1.54,0-2.6-1.11-2.6-2.73ZM100.17,42.21h3.01c0-.87-.57-1.44-1.45-1.44s-1.43.52-1.56,1.44Z"/><path d="M109.25,40.95h-.45c-.95,0-1.54.58-1.54,1.58v2.77h-1v-5.21h.94l.06.79c.21-.54.74-.91,1.45-.91.18,0,.33.02.53.06v.92Z"/><path d="M110.29,44.67c0-.42.35-.76.77-.76s.76.34.76.76-.35.75-.76.75-.77-.34-.77-.75Z"/><path d="M119.63,37.43c1.47,0,2.42.82,2.51,2.16h-1.06c-.05-.77-.6-1.22-1.46-1.22-.97,0-1.6.49-1.6,1.25,0,.62.35.99,1.08,1.16l1.27.3c1.26.29,1.9.97,1.9,2.06,0,1.39-1.08,2.27-2.72,2.27s-2.62-.82-2.68-2.15h1.07c.02.74.64,1.21,1.61,1.21,1.03,0,1.68-.48,1.68-1.25,0-.61-.33-.99-1.07-1.16l-1.27-.29c-1.26-.29-1.91-1.01-1.91-2.13,0-1.32,1.07-2.22,2.66-2.22Z"/><path d="M123.49,46.81h.67c.48,0,.87-.07,1.11-.74l.18-.5-2.1-5.5h1.06l1.52,4.21,1.55-4.21h1.04l-2.47,6.4c-.35.9-.88,1.27-1.68,1.27-.33,0-.61-.04-.88-.11v-.82Z"/><path d="M130.12,45.29v-5.22h.9l.1.68c.27-.49.82-.83,1.56-.83.81,0,1.39.41,1.66,1.06.25-.65.88-1.06,1.69-1.06,1.2,0,1.92.75,1.92,1.95v3.42h-.98v-3.17c0-.82-.46-1.29-1.16-1.29-.76,0-1.26.53-1.26,1.37v3.1h-.99v-3.18c0-.82-.45-1.27-1.15-1.27-.76,0-1.26.52-1.26,1.36v3.1h-1Z"/><path d="M140.25,45.29v-7.86h1v3.54c.34-.68,1.05-1.05,1.9-1.05,1.5,0,2.39,1.17,2.39,2.79s-.94,2.71-2.46,2.71c-.82,0-1.52-.36-1.86-1.08l-.08.95h-.91ZM142.91,44.51c1.03,0,1.63-.77,1.63-1.85s-.61-1.84-1.63-1.84-1.64.77-1.64,1.84.62,1.85,1.64,1.85Z"/><path d="M147.2,38.17c0-.37.3-.66.66-.66s.66.29.66.66-.3.66-.66.66-.66-.3-.66-.66ZM147.38,40.07h1v5.22h-1v-5.22Z"/><path d="M153.09,39.93c1.56,0,2.71,1.13,2.71,2.75s-1.15,2.74-2.71,2.74-2.72-1.13-2.72-2.74,1.15-2.75,2.72-2.75ZM153.09,44.53c1,0,1.71-.76,1.71-1.85s-.71-1.85-1.71-1.85-1.71.76-1.71,1.85.69,1.85,1.71,1.85Z"/><path d="M158.19,45.29v-4.38h-1.03v-.84h1.03v-1.63h1v1.63h1.03v.84h-1.03v4.38h-1Z"/><path d="M161.75,38.17c0-.37.3-.66.66-.66s.66.29.66.66-.3.66-.66.66-.66-.3-.66-.66ZM161.92,40.07h1v5.22h-1v-5.22Z"/><path d="M167.5,39.92c1.31,0,2.23.75,2.41,1.91h-1c-.17-.66-.7-1.01-1.38-1.01-.95,0-1.6.73-1.6,1.86s.61,1.85,1.56,1.85c.72,0,1.25-.37,1.43-.99h1c-.2,1.13-1.18,1.89-2.44,1.89-1.54,0-2.55-1.09-2.55-2.73s1.04-2.77,2.56-2.77Z"/><path d="M171.81,44.67c0-.42.35-.76.77-.76s.76.34.76.76-.35.75-.76.75-.77-.34-.77-.75Z"/></g></svg>