<svg id="Ebene_1-2" xmlns="http://www.w3.org/2000/svg" width="194.08" height="47.74" viewBox="0 0 194.08 47.74">
  <path id="Pfad_51" data-name="Pfad 51" d="M7.93,21a9.564,9.564,0,0,1-4.12-.84,6.688,6.688,0,0,1-2.8-2.39A6.778,6.778,0,0,1,0,14.02v-.81H3.75v.81a3.338,3.338,0,0,0,1.12,2.73,4.71,4.71,0,0,0,3.06.91,4.656,4.656,0,0,0,2.93-.78,2.458,2.458,0,0,0,.97-1.99,1.931,1.931,0,0,0-.48-1.36,3.428,3.428,0,0,0-1.38-.85,17.626,17.626,0,0,0-2.21-.62l-.66-.14a17.079,17.079,0,0,1-3.56-1.17A5.6,5.6,0,0,1,1.26,8.89a5.186,5.186,0,0,1-.79-3,5.531,5.531,0,0,1,.88-3.16A5.672,5.672,0,0,1,3.83.71,9.273,9.273,0,0,1,7.59,0a9.545,9.545,0,0,1,3.85.74,5.955,5.955,0,0,1,2.65,2.19,6.5,6.5,0,0,1,.97,3.65v.87H11.31V6.58a3.414,3.414,0,0,0-.45-1.86A2.643,2.643,0,0,0,9.58,3.68a5.384,5.384,0,0,0-1.99-.33A4.121,4.121,0,0,0,5.04,4a2.12,2.12,0,0,0-.82,1.77,2.063,2.063,0,0,0,.39,1.27,2.941,2.941,0,0,0,1.17.87,10.082,10.082,0,0,0,1.99.61l.66.14a18.743,18.743,0,0,1,3.76,1.18,6.367,6.367,0,0,1,2.5,1.9,4.866,4.866,0,0,1,.89,3.03,5.635,5.635,0,0,1-.94,3.24,6.273,6.273,0,0,1-2.65,2.19,9.564,9.564,0,0,1-4.05.79Z" fill="#fff"/>
  <path id="Pfad_52" data-name="Pfad 52" d="M21.37,26.36V23.19h7.79q.81,0,.81-.87v-3.6h-.52a3.411,3.411,0,0,1-.72.98,3.666,3.666,0,0,1-1.33.81,6.127,6.127,0,0,1-2.13.32,5.515,5.515,0,0,1-2.93-.76,5.188,5.188,0,0,1-1.95-2.12,6.763,6.763,0,0,1-.69-3.12V6.29h3.63v8.25a3.312,3.312,0,0,0,.79,2.42,3.019,3.019,0,0,0,2.26.81,3.2,3.2,0,0,0,2.6-1.11,4.681,4.681,0,0,0,.92-3.1V6.29h3.63V23.13a3.2,3.2,0,0,1-.87,2.35,3.09,3.09,0,0,1-2.31.88h-9Z" fill="#fff"/>
  <path id="Pfad_53" data-name="Pfad 53" d="M38.79,20.59V6.29h3.58V7.85h.52A3.222,3.222,0,0,1,44.13,6.6a4.277,4.277,0,0,1,2.28-.53,4.508,4.508,0,0,1,2.45.59A3.863,3.863,0,0,1,50.27,8.2h.52a4.3,4.3,0,0,1,1.38-1.53,4.435,4.435,0,0,1,2.54-.61,5.217,5.217,0,0,1,2.41.56,4.222,4.222,0,0,1,1.73,1.7,5.775,5.775,0,0,1,.65,2.87v9.4H55.87V11.45a2.333,2.333,0,0,0-.61-1.77,2.342,2.342,0,0,0-1.7-.59,2.377,2.377,0,0,0-1.92.79,3.389,3.389,0,0,0-.68,2.26v8.45H47.33V11.45a2.333,2.333,0,0,0-.61-1.77,2.342,2.342,0,0,0-1.7-.59,2.377,2.377,0,0,0-1.92.79,3.389,3.389,0,0,0-.68,2.26v8.45H38.79Z" fill="#fff"/>
  <path id="Pfad_54" data-name="Pfad 54" d="M73.27,21a5.54,5.54,0,0,1-2.97-.66,4.707,4.707,0,0,1-1.53-1.47h-.52V20.6H64.67V.4H68.3V7.93h.52a4.027,4.027,0,0,1,2.26-1.74,6.826,6.826,0,0,1,2.18-.3,6.258,6.258,0,0,1,3.2.85,6.33,6.33,0,0,1,2.37,2.49,8.185,8.185,0,0,1,.89,3.98v.46a8.3,8.3,0,0,1-.89,3.98,6.134,6.134,0,0,1-2.37,2.49,6.258,6.258,0,0,1-3.2.85Zm-1.1-3.18a3.879,3.879,0,0,0,2.8-1.08,4.173,4.173,0,0,0,1.12-3.16v-.29a4.223,4.223,0,0,0-1.11-3.16,4.183,4.183,0,0,0-5.61,0,4.173,4.173,0,0,0-1.12,3.16v.29a4.227,4.227,0,0,0,1.12,3.16,3.879,3.879,0,0,0,2.8,1.08Z" fill="#fff"/>
  <path id="Pfad_55" data-name="Pfad 55" d="M86.07,4.61a2.353,2.353,0,0,1-1.66-.63,2.185,2.185,0,0,1-.68-1.67A2.185,2.185,0,0,1,84.41.64a2.515,2.515,0,0,1,3.33,0,2.207,2.207,0,0,1,.66,1.67,2.207,2.207,0,0,1-.66,1.67A2.327,2.327,0,0,1,86.07,4.61ZM84.25,20.59V6.29h3.63V20.6H84.25Z" fill="#fff"/>
  <path id="Pfad_56" data-name="Pfad 56" d="M99.92,21a8.346,8.346,0,0,1-3.84-.87,6.424,6.424,0,0,1-2.68-2.51,7.613,7.613,0,0,1-.98-3.95v-.46a7.588,7.588,0,0,1,.98-3.95,6.484,6.484,0,0,1,2.68-2.51,8.909,8.909,0,0,1,7.68,0,6.484,6.484,0,0,1,2.68,2.51,7.613,7.613,0,0,1,.98,3.95v.46a7.613,7.613,0,0,1-.98,3.95,6.484,6.484,0,0,1-2.68,2.51A8.288,8.288,0,0,1,99.92,21Zm0-3.23a3.777,3.777,0,0,0,2.77-1.08,4.158,4.158,0,0,0,1.1-3.1V13.3a4.19,4.19,0,0,0-1.08-3.1,4.105,4.105,0,0,0-5.55,0,4.159,4.159,0,0,0-1.1,3.1v.29a4.159,4.159,0,0,0,1.1,3.1,3.777,3.777,0,0,0,2.77,1.08Z" fill="#fff"/>
  <path id="Pfad_57" data-name="Pfad 57" d="M112.01,20.59V6.29h3.58V8.17h.52a3.727,3.727,0,0,1,1.3-1.43,5,5,0,0,1,2.88-.68,5.539,5.539,0,0,1,2.93.76,5.162,5.162,0,0,1,1.95,2.11,6.748,6.748,0,0,1,.69,3.13V20.6h-3.63V12.35a3.312,3.312,0,0,0-.79-2.42,3.019,3.019,0,0,0-2.26-.81,3.2,3.2,0,0,0-2.6,1.11,4.681,4.681,0,0,0-.92,3.1V20.6h-3.63Z" fill="#fff"/>
  <path id="Pfad_58" data-name="Pfad 58" d="M136.92,20.68V18.52h2.83V2.65h-2.83V.49h7.87a8.712,8.712,0,0,1,6.16,2.02c1.45,1.35,2.18,3.41,2.18,6.2v3.75q0,4.215-2.18,6.22a8.735,8.735,0,0,1-6.16,2Zm5.25-2.2h2.62a6.177,6.177,0,0,0,4.44-1.44,5.943,5.943,0,0,0,1.5-4.47V8.62a5.927,5.927,0,0,0-1.5-4.5,6.261,6.261,0,0,0-4.44-1.41h-2.62V18.49Z" fill="#fff"/>
  <path id="Pfad_59" data-name="Pfad 59" d="M159.66,20.68V.49h12.43V2.68H162.08V9.43h9.2v2.19h-9.2v6.86h10.15v2.19H159.65Z" fill="#fff"/>
  <path id="Pfad_60" data-name="Pfad 60" d="M183.75,20.68,177.67.49h2.51l5.51,18.72h.38L191.57.49h2.51L188,20.68h-4.24Z" fill="#fff"/>
  <circle id="Ellipse_20" data-name="Ellipse 20" cx="1.69" cy="1.69" r="1.69" transform="translate(98.19 11.6)" fill="#fff"/>
  <path id="Pfad_61" data-name="Pfad 61" d="M28.94,37.43a2.265,2.265,0,0,1,2.51,2.16H30.39a1.293,1.293,0,0,0-1.46-1.22c-.97,0-1.6.49-1.6,1.25,0,.62.35.99,1.08,1.16l1.27.3c1.26.29,1.9.97,1.9,2.06,0,1.39-1.08,2.27-2.72,2.27s-2.62-.82-2.68-2.15h1.07c.02.74.64,1.21,1.61,1.21,1.03,0,1.68-.48,1.68-1.25,0-.61-.33-.99-1.07-1.16l-1.27-.29a2.1,2.1,0,0,1-1.91-2.13c0-1.32,1.07-2.22,2.66-2.22Z" fill="#fff"/>
  <path id="Pfad_62" data-name="Pfad 62" d="M33.49,45.29V40.07h.9l.1.68a1.853,1.853,0,0,1,3.22.23,1.72,1.72,0,0,1,1.69-1.06,1.789,1.789,0,0,1,1.92,1.95v3.42h-.98V42.12a1.137,1.137,0,0,0-1.16-1.29,1.234,1.234,0,0,0-1.26,1.37v3.1h-.99V42.12a1.113,1.113,0,0,0-1.15-1.27,1.226,1.226,0,0,0-1.26,1.36v3.1h-1Z" fill="#fff"/>
  <path id="Pfad_63" data-name="Pfad 63" d="M43.36,43.84c0-.96.72-1.56,1.94-1.66l1.64-.13V41.9a1.077,1.077,0,0,0-1.23-1.19c-.84,0-1.32.37-1.32,1h-.88c0-1.09.9-1.81,2.24-1.81a1.92,1.92,0,0,1,2.17,2.09v3.28h-.85l-.11-.84a1.923,1.923,0,0,1-1.83.97,1.568,1.568,0,0,1-1.78-1.58Zm3.6-.8v-.28l-1.33.11c-.89.09-1.25.43-1.25.94,0,.56.41.83,1.06.83a1.453,1.453,0,0,0,1.53-1.6Z" fill="#fff"/>
  <path id="Pfad_64" data-name="Pfad 64" d="M53.23,40.95h-.45a1.435,1.435,0,0,0-1.54,1.58V45.3h-1V40.09h.94l.06.79a1.482,1.482,0,0,1,1.45-.91,2.533,2.533,0,0,1,.53.06v.92Z" fill="#fff"/>
  <path id="Pfad_65" data-name="Pfad 65" d="M55.41,45.29V40.91H54.38v-.84h1.03V38.44h1v1.63h1.03v.84H56.41v4.38Z" fill="#fff"/>
  <path id="Pfad_66" data-name="Pfad 66" d="M58.79,42.69a2.547,2.547,0,0,1,2.55-2.77,2.361,2.361,0,0,1,2.46,2.57v.37H59.76c.08,1.11.65,1.72,1.64,1.72a1.341,1.341,0,0,0,1.46-.92h.94a2.248,2.248,0,0,1-2.42,1.75,2.54,2.54,0,0,1-2.6-2.73Zm1-.48H62.8a1.357,1.357,0,0,0-1.45-1.44,1.49,1.49,0,0,0-1.56,1.44Z" fill="#fff"/>
  <path id="Pfad_67" data-name="Pfad 67" d="M68.87,40.95h-.45a1.435,1.435,0,0,0-1.54,1.58V45.3h-1V40.09h.94l.06.79a1.482,1.482,0,0,1,1.45-.91,2.533,2.533,0,0,1,.53.06v.92Z" fill="#fff"/>
  <path id="Pfad_68" data-name="Pfad 68" d="M69.9,44.68a.768.768,0,0,1,.77-.76.755.755,0,1,1,0,1.51A.773.773,0,0,1,69.9,44.68Z" fill="#fff"/>
  <path id="Pfad_69" data-name="Pfad 69" d="M78.08,42.02V45.3H77.03V37.58h4.66v.96H78.08v2.53h3.03v.95H78.08Z" fill="#fff"/>
  <path id="Pfad_70" data-name="Pfad 70" d="M82.75,43.84c0-.96.72-1.56,1.94-1.66l1.64-.13V41.9a1.077,1.077,0,0,0-1.23-1.19c-.84,0-1.32.37-1.32,1H82.9c0-1.09.9-1.81,2.24-1.81a1.92,1.92,0,0,1,2.17,2.09v3.28h-.86l-.11-.84a1.923,1.923,0,0,1-1.83.97,1.568,1.568,0,0,1-1.78-1.58Zm3.6-.8v-.28l-1.33.11c-.89.09-1.25.43-1.25.94,0,.56.41.83,1.06.83a1.453,1.453,0,0,0,1.53-1.6Z" fill="#fff"/>
  <path id="Pfad_71" data-name="Pfad 71" d="M90.21,43.78c0,.53.41.85,1.07.85.71,0,1.11-.29,1.11-.77,0-.35-.17-.57-.72-.71l-.92-.21c-.93-.22-1.37-.68-1.37-1.45,0-.96.81-1.57,1.97-1.57a1.683,1.683,0,0,1,1.91,1.63H92.3a.864.864,0,0,0-.98-.85c-.61,0-.98.28-.98.76,0,.35.26.59.77.72l.92.22c.89.21,1.32.62,1.32,1.4,0,.99-.85,1.62-2.09,1.62s-2.01-.65-2.01-1.64h.96Z" fill="#fff"/>
  <path id="Pfad_72" data-name="Pfad 72" d="M95.8,45.29V40.91H94.77v-.84H95.8V38.44h1v1.63h1.03v.84H96.8v4.38Z" fill="#fff"/>
  <path id="Pfad_73" data-name="Pfad 73" d="M99.18,42.69a2.547,2.547,0,0,1,2.55-2.77,2.361,2.361,0,0,1,2.46,2.57v.37h-4.04c.08,1.11.65,1.72,1.64,1.72a1.341,1.341,0,0,0,1.46-.92h.94a2.248,2.248,0,0,1-2.42,1.75,2.54,2.54,0,0,1-2.6-2.73Zm.99-.48h3.01a1.357,1.357,0,0,0-1.45-1.44,1.49,1.49,0,0,0-1.56,1.44Z" fill="#fff"/>
  <path id="Pfad_74" data-name="Pfad 74" d="M109.25,40.95h-.45a1.435,1.435,0,0,0-1.54,1.58V45.3h-1V40.09h.94l.06.79a1.482,1.482,0,0,1,1.45-.91,2.533,2.533,0,0,1,.53.06v.92Z" fill="#fff"/>
  <path id="Pfad_75" data-name="Pfad 75" d="M110.29,44.68a.768.768,0,0,1,.77-.76.755.755,0,1,1,0,1.51A.773.773,0,0,1,110.29,44.68Z" fill="#fff"/>
  <path id="Pfad_76" data-name="Pfad 76" d="M119.63,37.43a2.265,2.265,0,0,1,2.51,2.16h-1.06a1.293,1.293,0,0,0-1.46-1.22c-.97,0-1.6.49-1.6,1.25,0,.62.35.99,1.08,1.16l1.27.3c1.26.29,1.9.97,1.9,2.06,0,1.39-1.08,2.27-2.72,2.27s-2.62-.82-2.68-2.15h1.07c.02.74.64,1.21,1.61,1.21,1.03,0,1.68-.48,1.68-1.25,0-.61-.33-.99-1.07-1.16l-1.27-.29a2.1,2.1,0,0,1-1.91-2.13c0-1.32,1.07-2.22,2.66-2.22Z" fill="#fff"/>
  <path id="Pfad_77" data-name="Pfad 77" d="M123.49,46.81h.67a.983.983,0,0,0,1.11-.74l.18-.5-2.1-5.5h1.06l1.52,4.21,1.55-4.21h1.04l-2.47,6.4a1.675,1.675,0,0,1-1.68,1.27,3.417,3.417,0,0,1-.88-.11v-.82Z" fill="#fff"/>
  <path id="Pfad_78" data-name="Pfad 78" d="M130.12,45.29V40.07h.9l.1.68a1.853,1.853,0,0,1,3.22.23,1.72,1.72,0,0,1,1.69-1.06,1.789,1.789,0,0,1,1.92,1.95v3.42h-.98V42.12a1.137,1.137,0,0,0-1.16-1.29,1.234,1.234,0,0,0-1.26,1.37v3.1h-.99V42.12a1.113,1.113,0,0,0-1.15-1.27,1.226,1.226,0,0,0-1.26,1.36v3.1h-1Z" fill="#fff"/>
  <path id="Pfad_79" data-name="Pfad 79" d="M140.25,45.29V37.43h1v3.54a2.021,2.021,0,0,1,1.9-1.05c1.5,0,2.39,1.17,2.39,2.79a2.43,2.43,0,0,1-2.46,2.71,1.947,1.947,0,0,1-1.86-1.08l-.08.95h-.91Zm2.66-.77a1.858,1.858,0,1,0-1.64-1.85A1.658,1.658,0,0,0,142.91,44.52Z" fill="#fff"/>
  <path id="Pfad_80" data-name="Pfad 80" d="M147.2,38.17a.66.66,0,1,1,.66.66A.659.659,0,0,1,147.2,38.17Zm.18,1.9h1v5.22h-1Z" fill="#fff"/>
  <path id="Pfad_81" data-name="Pfad 81" d="M153.09,39.93a2.745,2.745,0,1,1-2.72,2.75A2.631,2.631,0,0,1,153.09,39.93Zm0,4.6a1.856,1.856,0,1,0-1.71-1.85A1.71,1.71,0,0,0,153.09,44.53Z" fill="#fff"/>
  <path id="Pfad_82" data-name="Pfad 82" d="M158.19,45.29V40.91h-1.03v-.84h1.03V38.44h1v1.63h1.03v.84h-1.03v4.38Z" fill="#fff"/>
  <path id="Pfad_83" data-name="Pfad 83" d="M161.75,38.17a.66.66,0,1,1,.66.66A.659.659,0,0,1,161.75,38.17Zm.17,1.9h1v5.22h-1Z" fill="#fff"/>
  <path id="Pfad_84" data-name="Pfad 84" d="M167.5,39.92a2.256,2.256,0,0,1,2.41,1.91h-1a1.325,1.325,0,0,0-1.38-1.01,1.645,1.645,0,0,0-1.6,1.86c0,1.13.61,1.85,1.56,1.85a1.386,1.386,0,0,0,1.43-.99h1a2.346,2.346,0,0,1-2.44,1.89,2.492,2.492,0,0,1-2.55-2.73,2.543,2.543,0,0,1,2.56-2.77Z" fill="#fff"/>
  <path id="Pfad_85" data-name="Pfad 85" d="M171.81,44.68a.768.768,0,0,1,.77-.76.755.755,0,1,1,0,1.51A.773.773,0,0,1,171.81,44.68Z" fill="#fff"/>
</svg>

